{
  "accessors": [
    {
      "bufferView": 2,
      "componentType": 5126,
      "count": 65532,
      "max": [
        10386.93359375,
        1980.0,
        11084.4697265625
      ],
      "min": [
        -10386.93359375,
        -5.0,
        -11084.4697265625
      ],
      "type": "VEC3"
    },
    {
      "bufferView": 2,
      "byteOffset": 786384,
      "componentType": 5126,
      "count": 65532,
      "max": [
        0.9276437759399414,
        1.0,
        0.6896340250968933
      ],
      "min": [
        -0.9249623417854309,
        0.2919439971446991,
        -0.9382995367050171
      ],
      "type": "VEC3"
    },
    {
      "bufferView": 3,
      "componentType": 5126,
      "count": 65532,
      "max": [
        1.0,
        0.9400539398193359,
        0.13106989860534668,
        -1.0
      ],
      "min": [
        0.34102287888526917,
        -0.9335053563117981,
        -0.09511115401983261,
        -1.0
      ],
      "type": "VEC4"
    },
    {
      "bufferView": 1,
      "componentType": 5126,
      "count": 65532,
      "max": [
        1.0,
        1.0
      ],
      "min": [
        0.0,
        0.0
      ],
      "type": "VEC2"
    },
    {
      "bufferView": 1,
      "byteOffset": 524256,
      "componentType": 5126,
      "count": 65532,
      "max": [
        1.0,
        1.0
      ],
      "min": [
        0.0,
        0.0
      ],
      "type": "VEC2"
    },
    {
      "bufferView": 0,
      "componentType": 5125,
      "count": 386877,
      "type": "SCALAR"
    },
    {
      "bufferView": 2,
      "byteOffset": 1572768,
      "componentType": 5126,
      "count": 65532,
      "max": [
        10356.0205078125,
        1997.5,
        11084.4697265625
      ],
      "min": [
        -10386.93359375,
        2.5,
        -5565.43798828125
      ],
      "type": "VEC3"
    },
    {
      "bufferView": 2,
      "byteOffset": 2359152,
      "componentType": 5126,
      "count": 65532,
      "max": [
        0.8574258685112,
        1.0,
        0.7121741771697998
      ],
      "min": [
        -0.898451030254364,
        0.3477340638637543,
        -0.9168989062309265
      ],
      "type": "VEC3"
    },
    {
      "bufferView": 3,
      "byteOffset": 1048512,
      "componentType": 5126,
      "count": 65532,
      "max": [
        1.0,
        0.9126790761947632,
        0.037954237312078476,
        -1.0
      ],
      "min": [
        0.40867704153060913,
        -0.8874698281288147,
        -0.08439898490905762,
        -1.0
      ],
      "type": "VEC4"
    },
    {
      "bufferView": 1,
      "byteOffset": 1048512,
      "componentType": 5126,
      "count": 65532,
      "max": [
        0.9985118508338928,
        1.0
      ],
      "min": [
        0.0,
        0.24895334243774414
      ],
      "type": "VEC2"
    },
    {
      "bufferView": 1,
      "byteOffset": 1572768,
      "componentType": 5126,
      "count": 65532,
      "max": [
        0.9985118508338928,
        1.0
      ],
      "min": [
        0.0,
        0.24895334243774414
      ],
      "type": "VEC2"
    },
    {
      "bufferView": 0,
      "byteOffset": 1547508,
      "componentType": 5125,
      "count": 387447,
      "type": "SCALAR"
    },
    {
      "bufferView": 2,
      "byteOffset": 3145536,
      "componentType": 5126,
      "count": 65532,
      "max": [
        10325.1064453125,
        1875.0,
        11084.4697265625
      ],
      "min": [
        -10386.93359375,
        162.5,
        8.185088157653809
      ],
      "type": "VEC3"
    },
    {
      "bufferView": 2,
      "byteOffset": 3931920,
      "componentType": 5126,
      "count": 65532,
      "max": [
        0.7255574464797974,
        1.0,
        0.6913526654243469
      ],
      "min": [
        -0.6568204760551453,
        0.6328596472740173,
        -0.7147892117500305
      ],
      "type": "VEC3"
    },
    {
      "bufferView": 3,
      "byteOffset": 2097024,
      "componentType": 5126,
      "count": 65532,
      "max": [
        1.0,
        0.685772716999054,
        0.00556710921227932,
        -1.0
      ],
      "min": [
        0.6805935502052307,
        -0.7326611876487732,
        -0.006146843545138836,
        -1.0
      ],
      "type": "VEC4"
    },
    {
      "bufferView": 1,
      "byteOffset": 2097024,
      "componentType": 5126,
      "count": 65532,
      "max": [
        0.9970237612724304,
        1.0
      ],
      "min": [
        0.0,
        0.5003692507743835
      ],
      "type": "VEC2"
    },
    {
      "bufferView": 1,
      "byteOffset": 2621280,
      "componentType": 5126,
      "count": 65532,
      "max": [
        0.9970237612724304,
        1.0
      ],
      "min": [
        0.0,
        0.5003692507743835
      ],
      "type": "VEC2"
    },
    {
      "bufferView": 0,
      "byteOffset": 3097296,
      "componentType": 5125,
      "count": 388026,
      "type": "SCALAR"
    },
    {
      "bufferView": 2,
      "byteOffset": 4718304,
      "componentType": 5126,
      "count": 61053,
      "max": [
        10294.193359375,
        1412.5,
        11084.4697265625
      ],
      "min": [
        -10386.93359375,
        160.0,
        5694.88037109375
      ],
      "type": "VEC3"
    },
    {
      "bufferView": 2,
      "byteOffset": 5450940,
      "componentType": 5126,
      "count": 61053,
      "max": [
        0.6424725651741028,
        1.0,
        0.5535183548927307
      ],
      "min": [
        -0.8686906695365906,
        0.4649864733219147,
        -0.8808317184448242
      ],
      "type": "VEC3"
    },
    {
      "bufferView": 3,
      "byteOffset": 3145536,
      "componentType": 5126,
      "count": 61053,
      "max": [
        1.0,
        0.869761049747467,
        0.014294635504484177,
        -1.0
      ],
      "min": [
        0.4934731721878052,
        -0.6805021166801453,
        -0.01517027709633112,
        -1.0
      ],
      "type": "VEC4"
    },
    {
      "bufferView": 1,
      "byteOffset": 3145536,
      "componentType": 5126,
      "count": 61053,
      "max": [
        0.9955357313156128,
        1.0
      ],
      "min": [
        0.0,
        0.7568855285644531
      ],
      "type": "VEC2"
    },
    {
      "bufferView": 1,
      "byteOffset": 3633960,
      "componentType": 5126,
      "count": 61053,
      "max": [
        0.9955357313156128,
        1.0
      ],
      "min": [
        0.0,
        0.7568855285644531
      ],
      "type": "VEC2"
    },
    {
      "bufferView": 0,
      "byteOffset": 4649400,
      "componentType": 5125,
      "count": 361746,
      "type": "SCALAR"
    }
  ],
  "asset": {
    "extras": {
      "author": "Xavier Fischer - Elevation API (https://sketchfab.com/xfischer)",
      "license": "CC-BY-NC-SA-4.0 (http://creativecommons.org/licenses/by-nc-sa/4.0/)",
      "source": "https://sketchfab.com/3d-models/assynt-scotland-734b5d4d66434dccb3b7dd7cd15b8b48",
      "title": "Assynt, Scotland"
    },
    "generator": "Sketchfab-12.68.0",
    "version": "2.0"
  },
  "bufferViews": [
    {
      "buffer": 0,
      "byteLength": 6096384,
      "name": "floatBufferViews",
      "target": 34963
    },
    {
      "buffer": 0,
      "byteLength": 4122384,
      "byteOffset": 6096384,
      "byteStride": 8,
      "name": "floatBufferViews",
      "target": 34962
    },
    {
      "buffer": 0,
      "byteLength": 6183576,
      "byteOffset": 10218768,
      "byteStride": 12,
      "name": "floatBufferViews",
      "target": 34962
    },
    {
      "buffer": 0,
      "byteLength": 4122384,
      "byteOffset": 16402344,
      "byteStride": 16,
      "name": "floatBufferViews",
      "target": 34962
    }
  ],
  "buffers": [
    {
      "byteLength": 20524728,
      "uri": "scene.bin"
    }
  ],
  "images": [
    {
      "uri": "textures/material_0_baseColor.jpeg"
    },
    {
      "uri": "textures/material_0_normal.jpeg"
    }
  ],
  "materials": [
    {
      "name": "material_0",
      "normalTexture": {
        "index": 1,
        "texCoord": 1
      },
      "pbrMetallicRoughness": {
        "baseColorTexture": {
          "index": 0
        },
        "metallicFactor": 0.0
      }
    }
  ],
  "meshes": [
    {
      "name": "Object_0",
      "primitives": [
        {
          "attributes": {
            "NORMAL": 1,
            "POSITION": 0,
            "TANGENT": 2,
            "TEXCOORD_0": 3,
            "TEXCOORD_1": 4
          },
          "indices": 5,
          "material": 0,
          "mode": 4
        }
      ]
    },
    {
      "name": "Object_1",
      "primitives": [
        {
          "attributes": {
            "NORMAL": 7,
            "POSITION": 6,
            "TANGENT": 8,
            "TEXCOORD_0": 9,
            "TEXCOORD_1": 10
          },
          "indices": 11,
          "material": 0,
          "mode": 4
        }
      ]
    },
    {
      "name": "Object_2",
      "primitives": [
        {
          "attributes": {
            "NORMAL": 13,
            "POSITION": 12,
            "TANGENT": 14,
            "TEXCOORD_0": 15,
            "TEXCOORD_1": 16
          },
          "indices": 17,
          "material": 0,
          "mode": 4
        }
      ]
    },
    {
      "name": "Object_3",
      "primitives": [
        {
          "attributes": {
            "NORMAL": 19,
            "POSITION": 18,
            "TANGENT": 20,
            "TEXCOORD_0": 21,
            "TEXCOORD_1": 22
          },
          "indices": 23,
          "material": 0,
          "mode": 4
        }
      ]
    }
  ],
  "nodes": [
    {
      "children": [
        1
      ],
      "matrix": [
        1.0,
        0.0,
        0.0,
        0.0,
        0.0,
        2.220446049250313e-16,
        -1.0,
        0.0,
        0.0,
        1.0,
        2.220446049250313e-16,
        0.0,
        0.0,
        0.0,
        0.0,
        1.0
      ],
      "name": "Sketchfab_model"
    },
    {
      "children": [
        2
      ],
      "name": "root"
    },
    {
      "children": [
        3
      ],
      "matrix": [
        1.0,
        0.0,
        0.0,
        0.0,
        0.0,
        2.220446049250313e-16,
        1.0,
        0.0,
        0.0,
        -1.0,
        2.220446049250313e-16,
        0.0,
        0.0,
        0.0,
        0.0,
        1.0
      ],
      "name": "GLTF_SceneRootNode"
    },
    {
      "children": [
        4,
        5,
        6,
        7
      ],
      "name": "_0"
    },
    {
      "mesh": 0,
      "name": "Object_4"
    },
    {
      "mesh": 1,
      "name": "Object_5"
    },
    {
      "mesh": 2,
      "name": "Object_6"
    },
    {
      "mesh": 3,
      "name": "Object_7"
    }
  ],
  "samplers": [
    {
      "magFilter": 9729,
      "minFilter": 9987,
      "wrapS": 10497,
      "wrapT": 10497
    }
  ],
  "scene": 0,
  "scenes": [
    {
      "name": "Sketchfab_Scene",
      "nodes": [
        0
      ]
    }
  ],
  "textures": [
    {
      "sampler": 0,
      "source": 0
    },
    {
      "sampler": 0,
      "source": 1
    }
  ]
}
