{
  "accessors": [
    {
      "bufferView": 2,
      "componentType": 5126,
      "count": 65532,
      "max": [
        17.50006103515625,
        14.750006675720215,
        0.0
      ],
      "min": [
        -17.5,
        -14.75,
        0.0
      ],
      "type": "VEC3"
    },
    {
      "bufferView": 2,
      "byteOffset": 786384,
      "componentType": 5126,
      "count": 65532,
      "max": [
        0.0,
        0.0,
        1.0
      ],
      "min": [
        0.0,
        0.0,
        1.0
      ],
      "type": "VEC3"
    },
    {
      "bufferView": 1,
      "componentType": 5126,
      "count": 65532,
      "max": [
        1.0000016689300537,
        1.0000016689300537
      ],
      "min": [
        0.0,
        0.0
      ],
      "type": "VEC2"
    },
    {
      "bufferView": 2,
      "byteOffset": 1572768,
      "componentType": 5126,
      "count": 65532,
      "max": [
        0.100982666015625,
        0.1144399642944336,
        -0.1415567398071289
      ],
      "min": [
        -0.10806846618652344,
        -0.12390804290771484,
        -0.39700213074684143
      ],
      "type": "VEC3"
    },
    {
      "bufferView": 2,
      "byteOffset": 2359152,
      "componentType": 5126,
      "count": 65532,
      "max": [
        0.49756214022636414,
        0.4906005561351776,
        -1.7881393432617188e-07
      ],
      "min": [
        -0.6586545705795288,
        -0.3984067440032959,
        -0.4181739091873169
      ],
      "type": "VEC3"
    },
    {
      "bufferView": 2,
      "byteOffset": 3145536,
      "componentType": 5126,
      "count": 65532,
      "max": [
        0.10448431968688965,
        0.11029911041259766,
        -0.14220860600471497
      ],
      "min": [
        -0.10386085510253906,
        -0.12533092498779297,
        -0.3982730507850647
      ],
      "type": "VEC3"
    },
    {
      "bufferView": 2,
      "byteOffset": 3931920,
      "componentType": 5126,
      "count": 65532,
      "max": [
        0.4486071765422821,
        0.4939696490764618,
        0.0
      ],
      "min": [
        -0.6565244793891907,
        -0.3954196572303772,
        -0.4080120325088501
      ],
      "type": "VEC3"
    },
    {
      "bufferView": 2,
      "byteOffset": 4718304,
      "componentType": 5126,
      "count": 65532,
      "max": [
        0.10506415367126465,
        0.10639667510986328,
        -0.1427682340145111
      ],
      "min": [
        -0.1120450496673584,
        -0.11710834503173828,
        -0.4018736779689789
      ],
      "type": "VEC3"
    },
    {
      "bufferView": 2,
      "byteOffset": 5504688,
      "componentType": 5126,
      "count": 65532,
      "max": [
        0.3894174098968506,
        0.6475421190261841,
        -2.980232238769531e-07
      ],
      "min": [
        -0.506967306137085,
        -0.405079185962677,
        -0.334317147731781
      ],
      "type": "VEC3"
    },
    {
      "bufferView": 2,
      "byteOffset": 6291072,
      "componentType": 5126,
      "count": 65532,
      "max": [
        0.09979033470153809,
        0.11208963394165039,
        -0.14219936728477478
      ],
      "min": [
        -0.10282135009765625,
        -0.1085047721862793,
        -0.40558552742004395
      ],
      "type": "VEC3"
    },
    {
      "bufferView": 2,
      "byteOffset": 7077456,
      "componentType": 5126,
      "count": 65532,
      "max": [
        0.3991457521915436,
        0.6202044486999512,
        -7.152557373046875e-07
      ],
      "min": [
        -0.5248213410377502,
        -0.43114468455314636,
        -0.30074191093444824
      ],
      "type": "VEC3"
    },
    {
      "bufferView": 2,
      "byteOffset": 7863840,
      "componentType": 5126,
      "count": 65532,
      "max": [
        0.10385704040527344,
        0.10601663589477539,
        -0.13560235500335693
      ],
      "min": [
        -0.10110664367675781,
        -0.10057735443115234,
        -0.40831252932548523
      ],
      "type": "VEC3"
    },
    {
      "bufferView": 2,
      "byteOffset": 8650224,
      "componentType": 5126,
      "count": 65532,
      "max": [
        0.38402366638183594,
        0.811731219291687,
        -5.960464477539063e-08
      ],
      "min": [
        -0.4029756188392639,
        -0.42181500792503357,
        -0.5484150052070618
      ],
      "type": "VEC3"
    },
    {
      "bufferView": 2,
      "byteOffset": 9436608,
      "componentType": 5126,
      "count": 65532,
      "max": [
        0.10236036777496338,
        0.11649608612060547,
        -0.13211095333099365
      ],
      "min": [
        -0.10319626331329346,
        -0.10224533081054688,
        -0.3928227126598358
      ],
      "type": "VEC3"
    },
    {
      "bufferView": 2,
      "byteOffset": 10222992,
      "componentType": 5126,
      "count": 65532,
      "max": [
        0.498456746339798,
        0.5104436278343201,
        -1.1920928955078125e-07
      ],
      "min": [
        -0.44515204429626465,
        -0.4160529673099518,
        -0.23944705724716187
      ],
      "type": "VEC3"
    },
    {
      "bufferView": 2,
      "byteOffset": 11009376,
      "componentType": 5126,
      "count": 65532,
      "max": [
        0.09862732887268066,
        0.11464977264404297,
        -0.1354362666606903
      ],
      "min": [
        -0.10737323760986328,
        -0.10370159149169922,
        -0.38545024394989014
      ],
      "type": "VEC3"
    },
    {
      "bufferView": 2,
      "byteOffset": 11795760,
      "componentType": 5126,
      "count": 65532,
      "max": [
        0.4387127757072449,
        0.5910696387290955,
        -5.960464477539063e-08
      ],
      "min": [
        -0.4346623420715332,
        -0.43626266717910767,
        -0.24907410144805908
      ],
      "type": "VEC3"
    },
    {
      "bufferView": 2,
      "byteOffset": 12582144,
      "componentType": 5126,
      "count": 65532,
      "max": [
        0.09898018836975098,
        0.11964797973632813,
        -0.1411455273628235
      ],
      "min": [
        -0.09950542449951172,
        -0.10699129104614258,
        -0.3905400335788727
      ],
      "type": "VEC3"
    },
    {
      "bufferView": 2,
      "byteOffset": 13368528,
      "componentType": 5126,
      "count": 65532,
      "max": [
        0.38668376207351685,
        0.402103066444397,
        -1.1920928955078125e-07
      ],
      "min": [
        -0.3724776804447174,
        -0.44341975450515747,
        -0.10961705446243286
      ],
      "type": "VEC3"
    },
    {
      "bufferView": 2,
      "byteOffset": 14154912,
      "componentType": 5126,
      "count": 65532,
      "max": [
        0.09922027587890625,
        0.11916160583496094,
        -0.13513347506523132
      ],
      "min": [
        -0.09334564208984375,
        -0.10870027542114258,
        -0.39488112926483154
      ],
      "type": "VEC3"
    },
    {
      "bufferView": 2,
      "byteOffset": 14941296,
      "componentType": 5126,
      "count": 65532,
      "max": [
        0.3728329837322235,
        0.6664374470710754,
        -2.384185791015625e-07
      ],
      "min": [
        -0.3906417787075043,
        -0.44196420907974243,
        -0.3473973870277405
      ],
      "type": "VEC3"
    },
    {
      "bufferView": 2,
      "byteOffset": 15727680,
      "componentType": 5126,
      "count": 65532,
      "max": [
        0.0919961929321289,
        0.1135873794555664,
        -0.13089612126350403
      ],
      "min": [
        -0.09788894653320313,
        -0.10106801986694336,
        -0.39763036370277405
      ],
      "type": "VEC3"
    },
    {
      "bufferView": 2,
      "byteOffset": 16514064,
      "componentType": 5126,
      "count": 65532,
      "max": [
        0.4003628194332123,
        0.417901873588562,
        -2.384185791015625e-07
      ],
      "min": [
        -0.5622258186340332,
        -0.4363369345664978,
        -0.28637534379959106
      ],
      "type": "VEC3"
    },
    {
      "bufferView": 0,
      "componentType": 5125,
      "count": 390000,
      "type": "SCALAR"
    },
    {
      "bufferView": 2,
      "byteOffset": 17300448,
      "componentType": 5126,
      "count": 58011,
      "max": [
        17.50006103515625,
        13.907149314880371,
        0.0
      ],
      "min": [
        -16.399995803833008,
        -14.75,
        0.0
      ],
      "type": "VEC3"
    },
    {
      "bufferView": 2,
      "byteOffset": 17996580,
      "componentType": 5126,
      "count": 58011,
      "max": [
        0.0,
        0.0,
        1.0
      ],
      "min": [
        0.0,
        0.0,
        1.0
      ],
      "type": "VEC3"
    },
    {
      "bufferView": 1,
      "byteOffset": 524256,
      "componentType": 5126,
      "count": 58011,
      "max": [
        1.0000016689300537,
        0.971430242061615
      ],
      "min": [
        0.03142857179045677,
        0.0
      ],
      "type": "VEC2"
    },
    {
      "bufferView": 2,
      "byteOffset": 18692712,
      "componentType": 5126,
      "count": 58011,
      "max": [
        0.10132312774658203,
        0.0966043472290039,
        -0.147281676530838
      ],
      "min": [
        -0.1064157485961914,
        -0.11090087890625,
        -0.39114466309547424
      ],
      "type": "VEC3"
    },
    {
      "bufferView": 2,
      "byteOffset": 19388844,
      "componentType": 5126,
      "count": 58011,
      "max": [
        0.4221213459968567,
        0.4039824306964874,
        -4.76837158203125e-07
      ],
      "min": [
        -0.4491634666919708,
        -0.5794455409049988,
        -0.2064085602760315
      ],
      "type": "VEC3"
    },
    {
      "bufferView": 2,
      "byteOffset": 20084976,
      "componentType": 5126,
      "count": 58011,
      "max": [
        0.10194110870361328,
        0.09766387939453125,
        -0.14724493026733398
      ],
      "min": [
        -0.1051187515258789,
        -0.11175918579101563,
        -0.38929274678230286
      ],
      "type": "VEC3"
    },
    {
      "bufferView": 2,
      "byteOffset": 20781108,
      "componentType": 5126,
      "count": 58011,
      "max": [
        0.438717782497406,
        0.40751704573631287,
        -1.2516975402832031e-06
      ],
      "min": [
        -0.43152931332588196,
        -0.5810468792915344,
        -0.2066587209701538
      ],
      "type": "VEC3"
    },
    {
      "bufferView": 2,
      "byteOffset": 21477240,
      "componentType": 5126,
      "count": 58011,
      "max": [
        0.1053314208984375,
        0.1052713394165039,
        -0.146627277135849
      ],
      "min": [
        -0.10450267791748047,
        -0.11527252197265625,
        -0.3841421604156494
      ],
      "type": "VEC3"
    },
    {
      "bufferView": 2,
      "byteOffset": 22173372,
      "componentType": 5126,
      "count": 58011,
      "max": [
        0.403126060962677,
        0.3948708474636078,
        -5.960464477539063e-08
      ],
      "min": [
        -0.39139583706855774,
        -0.43918758630752563,
        -0.1261206865310669
      ],
      "type": "VEC3"
    },
    {
      "bufferView": 2,
      "byteOffset": 22869504,
      "componentType": 5126,
      "count": 58011,
      "max": [
        0.09823894500732422,
        0.10112380981445313,
        -0.14885130524635315
      ],
      "min": [
        -0.09314686059951782,
        -0.1191864013671875,
        -0.38374757766723633
      ],
      "type": "VEC3"
    },
    {
      "bufferView": 2,
      "byteOffset": 23565636,
      "componentType": 5126,
      "count": 58011,
      "max": [
        0.44186651706695557,
        0.41365593671798706,
        -3.5762786865234375e-07
      ],
      "min": [
        -0.36734864115715027,
        -0.48442256450653076,
        -0.2449578046798706
      ],
      "type": "VEC3"
    },
    {
      "bufferView": 2,
      "byteOffset": 24261768,
      "componentType": 5126,
      "count": 58011,
      "max": [
        0.10498905181884766,
        0.10988807678222656,
        -0.14682641625404358
      ],
      "min": [
        -0.09442973136901855,
        -0.1241607666015625,
        -0.3825286030769348
      ],
      "type": "VEC3"
    },
    {
      "bufferView": 2,
      "byteOffset": 24957900,
      "componentType": 5126,
      "count": 58011,
      "max": [
        0.3595695197582245,
        0.4342014789581299,
        -1.1920928955078125e-07
      ],
      "min": [
        -0.38558727502822876,
        -0.46576160192489624,
        -0.14583373069763184
      ],
      "type": "VEC3"
    },
    {
      "bufferView": 2,
      "byteOffset": 25654032,
      "componentType": 5126,
      "count": 58011,
      "max": [
        0.1053781509399414,
        0.10986042022705078,
        -0.14163514971733093
      ],
      "min": [
        -0.09158611297607422,
        -0.143798828125,
        -0.3805103302001953
      ],
      "type": "VEC3"
    },
    {
      "bufferView": 2,
      "byteOffset": 26350164,
      "componentType": 5126,
      "count": 58011,
      "max": [
        0.504353404045105,
        0.47691610455513,
        0.0
      ],
      "min": [
        -0.39157044887542725,
        -0.6572031378746033,
        -0.2666570544242859
      ],
      "type": "VEC3"
    },
    {
      "bufferView": 2,
      "byteOffset": 27046296,
      "componentType": 5126,
      "count": 58011,
      "max": [
        0.10424518585205078,
        0.1098623275756836,
        -0.13906145095825195
      ],
      "min": [
        -0.0916910171508789,
        -0.12703514099121094,
        -0.37993285059928894
      ],
      "type": "VEC3"
    },
    {
      "bufferView": 2,
      "byteOffset": 27742428,
      "componentType": 5126,
      "count": 58011,
      "max": [
        0.5772383213043213,
        0.4277738034725189,
        -1.7881393432617188e-07
      ],
      "min": [
        -0.40909355878829956,
        -0.5123598575592041,
        -0.3641672134399414
      ],
      "type": "VEC3"
    },
    {
      "bufferView": 2,
      "byteOffset": 28438560,
      "componentType": 5126,
      "count": 58011,
      "max": [
        0.09667301177978516,
        0.11678314208984375,
        -0.13785257935523987
      ],
      "min": [
        -0.09276652336120605,
        -0.11178112030029297,
        -0.38234132528305054
      ],
      "type": "VEC3"
    },
    {
      "bufferView": 2,
      "byteOffset": 29134692,
      "componentType": 5126,
      "count": 58011,
      "max": [
        0.4653026759624481,
        0.40607860684394836,
        -1.7881393432617188e-07
      ],
      "min": [
        -0.3826376795768738,
        -0.5481720566749573,
        -0.28565096855163574
      ],
      "type": "VEC3"
    },
    {
      "bufferView": 2,
      "byteOffset": 29830824,
      "componentType": 5126,
      "count": 58011,
      "max": [
        0.1025543212890625,
        0.11209869384765625,
        -0.14631398022174835
      ],
      "min": [
        -0.10939407348632813,
        -0.10056173801422119,
        -0.392200767993927
      ],
      "type": "VEC3"
    },
    {
      "bufferView": 2,
      "byteOffset": 30526956,
      "componentType": 5126,
      "count": 58011,
      "max": [
        0.40272149443626404,
        0.38833317160606384,
        -2.980232238769531e-07
      ],
      "min": [
        -0.3540845513343811,
        -0.5859012007713318,
        -0.23201602697372437
      ],
      "type": "VEC3"
    },
    {
      "bufferView": 2,
      "byteOffset": 31223088,
      "componentType": 5126,
      "count": 58011,
      "max": [
        0.10701370239257813,
        0.1088247299194336,
        -0.14368480443954468
      ],
      "min": [
        -0.09452056884765625,
        -0.10358810424804688,
        -0.3968723714351654
      ],
      "type": "VEC3"
    },
    {
      "bufferView": 2,
      "byteOffset": 31919220,
      "componentType": 5126,
      "count": 58011,
      "max": [
        0.38983720541000366,
        0.4064273238182068,
        -4.76837158203125e-07
      ],
      "min": [
        -0.3694634437561035,
        -0.4095398485660553,
        -0.09741836786270142
      ],
      "type": "VEC3"
    },
    {
      "bufferView": 0,
      "byteOffset": 1560000,
      "componentType": 5125,
      "count": 345000,
      "type": "SCALAR"
    },
    {
      "bufferView": 3,
      "componentType": 5126,
      "count": 181,
      "max": [
        6.0
      ],
      "min": [
        0.0
      ],
      "type": "SCALAR"
    },
    {
      "bufferView": 3,
      "byteOffset": 724,
      "componentType": 5126,
      "count": 1810,
      "max": [
        1.0
      ],
      "min": [
        0.0
      ],
      "type": "SCALAR"
    },
    {
      "bufferView": 3,
      "byteOffset": 7964,
      "componentType": 5126,
      "count": 181,
      "max": [
        6.0
      ],
      "min": [
        0.0
      ],
      "type": "SCALAR"
    },
    {
      "bufferView": 3,
      "byteOffset": 8688,
      "componentType": 5126,
      "count": 1810,
      "max": [
        1.0
      ],
      "min": [
        0.0
      ],
      "type": "SCALAR"
    }
  ],
  "animations": [
    {
      "channels": [
        {
          "sampler": 0,
          "target": {
            "node": 9,
            "path": "weights"
          }
        },
        {
          "sampler": 1,
          "target": {
            "node": 11,
            "path": "weights"
          }
        }
      ],
      "name": "Take 001",
      "samplers": [
        {
          "input": 48,
          "interpolation": "LINEAR",
          "output": 49
        },
        {
          "input": 50,
          "interpolation": "LINEAR",
          "output": 51
        }
      ]
    }
  ],
  "asset": {
    "extras": {
      "author": "nathanmiller5wtue (https://sketchfab.com/nathanmiller5wtue)",
      "license": "CC-BY-4.0 (http://creativecommons.org/licenses/by/4.0/)",
      "source": "https://sketchfab.com/3d-models/animated-water-surface-7c19d47f7bd54bdb830c525f8c9ef41d",
      "title": "animated_water_surface"
    },
    "generator": "Sketchfab-15.27.0",
    "version": "2.0"
  },
  "bufferViews": [
    {
      "buffer": 0,
      "byteLength": 2940000,
      "name": "floatBufferViews",
      "target": 34963
    },
    {
      "buffer": 0,
      "byteLength": 988344,
      "byteOffset": 2940000,
      "byteStride": 8,
      "name": "floatBufferViews",
      "target": 34962
    },
    {
      "buffer": 0,
      "byteLength": 32615352,
      "byteOffset": 3928344,
      "byteStride": 12,
      "name": "floatBufferViews",
      "target": 34962
    },
    {
      "buffer": 0,
      "byteLength": 15928,
      "byteOffset": 36543696,
      "name": "floatBufferViews"
    }
  ],
  "buffers": [
    {
      "byteLength": 36559624,
      "uri": "scene.bin"
    }
  ],
  "materials": [
    {
      "doubleSided": true,
      "name": "Scene_-_Root",
      "pbrMetallicRoughness": {
        "baseColorFactor": [
          0.00866779,
          0.0281958,
          0.0371601,
          1.0
        ],
        "roughnessFactor": 0.165875
      }
    }
  ],
  "meshes": [
    {
      "name": "mesh_0",
      "primitives": [
        {
          "attributes": {
            "NORMAL": 1,
            "POSITION": 0,
            "TEXCOORD_0": 2
          },
          "indices": 23,
          "material": 0,
          "mode": 4,
          "targets": [
            {
              "NORMAL": 4,
              "POSITION": 3
            },
            {
              "NORMAL": 6,
              "POSITION": 5
            },
            {
              "NORMAL": 8,
              "POSITION": 7
            },
            {
              "NORMAL": 10,
              "POSITION": 9
            },
            {
              "NORMAL": 12,
              "POSITION": 11
            },
            {
              "NORMAL": 14,
              "POSITION": 13
            },
            {
              "NORMAL": 16,
              "POSITION": 15
            },
            {
              "NORMAL": 18,
              "POSITION": 17
            },
            {
              "NORMAL": 20,
              "POSITION": 19
            },
            {
              "NORMAL": 22,
              "POSITION": 21
            }
          ]
        }
      ],
      "weights": [
        0.0,
        0.0,
        0.0,
        0.0,
        0.0,
        0.0,
        0.0,
        0.0,
        0.0,
        0.0
      ]
    },
    {
      "name": "mesh_1",
      "primitives": [
        {
          "attributes": {
            "NORMAL": 25,
            "POSITION": 24,
            "TEXCOORD_0": 26
          },
          "indices": 47,
          "material": 0,
          "mode": 4,
          "targets": [
            {
              "NORMAL": 28,
              "POSITION": 27
            },
            {
              "NORMAL": 30,
              "POSITION": 29
            },
            {
              "NORMAL": 32,
              "POSITION": 31
            },
            {
              "NORMAL": 34,
              "POSITION": 33
            },
            {
              "NORMAL": 36,
              "POSITION": 35
            },
            {
              "NORMAL": 38,
              "POSITION": 37
            },
            {
              "NORMAL": 40,
              "POSITION": 39
            },
            {
              "NORMAL": 42,
              "POSITION": 41
            },
            {
              "NORMAL": 44,
              "POSITION": 43
            },
            {
              "NORMAL": 46,
              "POSITION": 45
            }
          ]
        }
      ],
      "weights": [
        0.0,
        0.0,
        0.0,
        0.0,
        0.0,
        0.0,
        0.0,
        0.0,
        0.0,
        0.0
      ]
    }
  ],
  "nodes": [
    {
      "children": [
        1
      ],
      "matrix": [
        43.408668518066406,
        0.0,
        0.0,
        0.0,
        0.0,
        9.6386606514157e-15,
        -43.408668518066406,
        0.0,
        0.0,
        43.408668518066406,
        9.6386606514157e-15,
        0.0,
        0.0,
        0.0,
        0.0,
        1.0
      ],
      "name": "Sketchfab_model"
    },
    {
      "children": [
        2
      ],
      "name": "root"
    },
    {
      "children": [
        3
      ],
      "matrix": [
        1.0,
        0.0,
        0.0,
        0.0,
        0.0,
        2.220446049250313e-16,
        1.0,
        0.0,
        0.0,
        -1.0,
        2.220446049250313e-16,
        0.0,
        0.0,
        0.0,
        0.0,
        1.0
      ],
      "name": "GLTF_SceneRootNode"
    },
    {
      "children": [
        4
      ],
      "matrix": [
        1.0,
        0.0,
        0.0,
        0.0,
        0.0,
        -1.0,
        -2.220446049250313e-16,
        0.0,
        0.0,
        2.220446049250313e-16,
        -1.0,
        0.0,
        -0.0068340301513671875,
        -40.174530029296875,
        41.8220100402832,
        1.0
      ],
      "name": "Sketchfab_model_0"
    },
    {
      "children": [
        5
      ],
      "matrix": [
        1.0,
        0.0,
        0.0,
        0.0,
        0.0,
        0.0,
        1.0,
        0.0,
        0.0,
        -1.0,
        0.0,
        0.0,
        0.0,
        0.0,
        0.0,
        1.0
      ],
      "name": "926ee8718a8947f3ad66ac7e401f3e5d.fbx_1"
    },
    {
      "children": [
        6
      ],
      "name": "Object_2_2"
    },
    {
      "children": [
        7
      ],
      "name": "RootNode_3"
    },
    {
      "children": [
        8,
        10
      ],
      "matrix": [
        1.0,
        0.0,
        0.0,
        0.0,
        0.0,
        0.9999999999999867,
        1.6292068494294545e-07,
        0.0,
        0.0,
        -1.6292068494294545e-07,
        0.9999999999999867,
        0.0,
        -0.6712602376937866,
        0.8622401356697083,
        41.24266815185547,
        1.0
      ],
      "name": "Plane003_4"
    },
    {
      "children": [
        9
      ],
      "name": "0_5"
    },
    {
      "mesh": 0,
      "name": "mesh_0"
    },
    {
      "children": [
        11
      ],
      "name": "0_6"
    },
    {
      "mesh": 1,
      "name": "mesh_1"
    }
  ],
  "scene": 0,
  "scenes": [
    {
      "name": "Sketchfab_Scene",
      "nodes": [
        0
      ]
    }
  ]
}
